<svg xmlns="http://www.w3.org/2000/svg" viewBox="0 0 512 512" height="512" width="512"><g fill="none" fill-rule="evenodd"><path d="M482.6 261.4c0-16.8-1.5-33-4.3-48.3H256v91.4h127c-5.5 29.5-22 54.5-47 71.2v59.2H412c44.6-41 70.4-101.6 70.4-173.4z" fill="#4285f4"/><path d="M256 492c63.7 0 117-21 156.2-57.2L336 375.6c-21.2 14.2-48.2 22.5-80 22.5-61.5 0-113.5-41.4-132-97.2H45V362c39 77 118.7 130 211 130z" fill="#34a853"/><path d="M124 300.8c-4.8-14-7.4-29.3-7.4-44.8s2.6-30.7 7.4-44.8V150H45c-16 32-25 68-25 106s9 74 25 106l79-61.2z" fill="#fbbc05"/><path d="M256 114c34.6 0 65.8 11.8 90.2 35L414 81.7C373 43.5 319.5 20 256 20 163.7 20 84 73 45 150l79 61.2c18.5-55.8 70.5-97.3 132-97.3z" fill="#ea4335"/><path d="M20 20h472v472H20V20z"/></g></svg>