<?xml version="1.0" standalone="no"?><!-- Generator: Gravit.io --><svg xmlns="http://www.w3.org/2000/svg" xmlns:xlink="http://www.w3.org/1999/xlink" style="isolation:isolate" viewBox="0 0 1000 1000" width="1000" height="1000"><path d=" M 527.55 230.9 L 714.65 230.9 L 714.65 259.1 L 527.55 259.1 L 527.55 230.9 Z " fill="rgb(82,82,82)"/><path d=" M 527.55 230.9 L 714.65 230.9 L 714.65 259.1 L 527.55 259.1 L 527.55 230.9 Z " fill="none"/><path d=" M 500.64 259.1 L 741.54 259.1 L 741.54 365.46 L 500.64 365.46 L 500.64 259.1 Z " fill="rgb(82,82,82)"/><path d=" M 500.64 259.1 L 741.54 259.1 L 741.54 365.46 L 500.64 365.46 L 500.64 259.1 Z " fill="none"/><path d=" M 500.64 365.45 L 632.62 365.45 L 632.62 419.27 L 500.64 419.27 L 500.64 365.45 Z " fill="rgb(82,82,82)"/><path d=" M 500.64 365.45 L 632.62 365.45 L 632.62 419.27 L 500.64 419.27 L 500.64 365.45 Z " fill="none"/><path d=" M 632.63 392.36 L 687.73 392.36 L 687.73 419.26 L 632.63 419.26 L 632.63 392.36 Z " fill="rgb(82,82,82)"/><path d=" M 632.63 392.36 L 687.73 392.36 L 687.73 419.26 L 632.63 419.26 L 632.63 392.36 Z " fill="none"/><path d=" M 607 473.1 L 660.18 473.1 L 660.18 499.36 L 607 499.36 L 607 473.1 Z " fill="rgb(82,82,82)"/><path d=" M 607 473.1 L 660.18 473.1 L 660.18 499.36 L 607 499.36 L 607 473.1 Z " fill="none"/><path d=" M 632.95 499.36 L 659.55 499.36 L 659.55 526.91 L 632.95 526.91 L 632.95 499.36 Z " fill="rgb(82,82,82)"/><path d=" M 632.95 499.36 L 659.55 499.36 L 659.55 526.91 L 632.95 526.91 L 632.95 499.36 Z " fill="none"/><path d=" M 526.27 743.47 L 552.54 743.47 L 552.54 769.1 L 526.27 769.1 L 526.27 743.47 Z " fill="rgb(82,82,82)"/><path d=" M 526.27 743.47 L 552.54 743.47 L 552.54 769.1 L 526.27 769.1 L 526.27 743.47 Z " fill="none"/><path d=" M 391.08 743.47 L 417.98 743.47 L 417.98 769.1 L 391.08 769.1 L 391.08 743.47 Z " fill="rgb(82,82,82)"/><path d=" M 391.08 743.47 L 417.98 743.47 L 417.98 769.1 L 391.08 769.1 L 391.08 743.47 Z " fill="none"/><path d="M 418 473.1 L 446.18 473.1 L 446.18 688.37 L 417.98 688.37 L 418 473.1 Z M 473.1 634.55 L 500 634.55 L 500 688.37 L 473.1 688.37 L 473.1 634.55 Z M 500 634.55 L 526.27 634.55 L 526.27 769.1 L 500 769.1 L 500 634.55 Z M 552.54 607.65 L 579.45 607.65 L 579.45 579.45 L 473.1 579.45 L 473.1 607.64 L 473.1 607.65 L 473.1 634.54 L 552.54 634.54 L 552.54 607.65 Z M 446.18 447.46 L 473.08 447.46 L 473.08 660.16 L 446.18 660.16 L 446.18 447.46 Z M 473.1 419.27 L 606.36 419.27 L 606.36 579.45 L 473.1 579.45 L 473.1 419.27 Z" style="stroke:none;fill:#525252;stroke-miterlimit:10;"/><path d=" M 391.08 499.36 L 417.98 499.36 L 417.98 715.28 L 391.08 715.28 L 391.08 499.36 Z " fill="none"/><path d=" M 337.26 526.9 L 391.08 526.9 L 391.08 661.46 L 337.26 661.46 L 337.26 526.9 Z " fill="none"/><path d=" M 364.17 661.46 L 391.07 661.46 L 391.07 769.1 L 364.17 769.1 L 364.17 661.46 Z " fill="none"/><path d=" M 310.35 499.36 L 337.25 499.36 L 337.25 634.56 L 310.35 634.56 L 310.35 499.36 Z " fill="none"/><path d=" M 284.72 473.1 L 310.35 473.1 L 310.35 607.64 L 284.72 607.64 L 284.72 473.1 Z " fill="none"/><path d="M 391.07 661.46 L 391.08 661.46 L 391.08 526.9 L 337.26 526.9 L 337.26 661.46 L 364.17 661.46 L 364.17 769.1 L 391.07 769.1 L 391.07 661.46 Z M 391.08 499.36 L 417.98 499.36 L 417.98 715.28 L 391.08 715.28 L 391.08 499.36 Z M 285.36 473.1 L 310.35 473.1 L 310.35 607.64 L 284.72 607.64 L 284.72 580.73 L 258.46 580.73 L 258.46 419.27 L 285.36 419.27 L 285.36 473.1 Z M 310.35 499.36 L 337.25 499.36 L 337.25 634.56 L 310.35 634.56 L 310.35 499.36 Z" style="stroke:none;fill:#525252;stroke-miterlimit:10;"/><path d=" M 258.46 419.27 L 285.36 419.27 L 285.36 580.73 L 258.46 580.73 L 258.46 419.27 Z " fill="none"/><path d=" M 551.9 259.1 L 582.65 259.1 L 582.65 289.85 L 551.9 289.85 L 551.9 259.1 Z " fill="rgb(255,255,255)"/><path d=" M 551.9 259.1 L 582.65 259.1 L 582.65 289.85 L 551.9 289.85 L 551.9 259.1 Z " fill="none"/><defs><filter id="5XqjsWPKVX6TCG6wP8PPZwA6fO1BnaE8" x="-200%" y="-200%" width="400%" height="400%"><feOffset xmlns="http://www.w3.org/2000/svg" in="SourceAlpha" result="offOut" dx="0" dy="8"/><feGaussianBlur xmlns="http://www.w3.org/2000/svg" in="offOut" result="blurOut" stdDeviation="4"/><feComponentTransfer xmlns="http://www.w3.org/2000/svg" in="blurOut" result="opacOut"><feFuncA xmlns="http://www.w3.org/2000/svg" type="table" tableValues="0 0.5"/></feComponentTransfer><feBlend xmlns="http://www.w3.org/2000/svg" in="SourceGraphic" in2="opacOut" mode="normal"/></filter></defs><g filter="url(#5XqjsWPKVX6TCG6wP8PPZwA6fO1BnaE8)"><path d=" M 210.03 210.03 C 370.07 50 629.93 50 789.97 210.03 C 950.01 370.07 950.01 629.93 789.97 789.97 C 629.93 950.01 370.07 950.01 210.03 789.97 C 50 629.93 50 370.07 210.03 210.03 Z  M 217.19 217.19 L 786.39 786.39 L 217.19 217.19 L 217.19 217.19 Z " fill="none" vector-effect="non-scaling-stroke" stroke-width="45.49" stroke="rgb(25,118,210)" stroke-linejoin="miter" stroke-linecap="square" stroke-miterlimit="3"/></g></svg>