<svg xmlns="http://www.w3.org/2000/svg" style="isolation:isolate" width="1000" height="1000"><path fill="#525252" d="M527.55 230.9h187.1v28.2h-187.1z"/><mask id="a"><path fill="#fff" d="M527.55 230.9h187.1v28.2h-187.1z"/></mask><path fill="none" mask="url(#a)" d="M527.55 230.9h187.1v28.2h-187.1z"/><path fill="#525252" d="M500.64 259.1h240.9v106.36h-240.9z"/><mask id="b"><path fill="#fff" d="M500.64 259.1h240.9v106.36h-240.9z"/></mask><path fill="none" mask="url(#b)" d="M500.64 259.1h240.9v106.36h-240.9z"/><path fill="#525252" d="M500.64 365.45h131.98v53.82H500.64z"/><mask id="c"><path fill="#fff" d="M500.64 365.45h131.98v53.82H500.64z"/></mask><path fill="none" mask="url(#c)" d="M500.64 365.45h131.98v53.82H500.64z"/><path fill="#525252" d="M632.63 392.36h55.1v26.9h-55.1z"/><mask id="d"><path fill="#fff" d="M632.63 392.36h55.1v26.9h-55.1z"/></mask><path fill="none" mask="url(#d)" d="M632.63 392.36h55.1v26.9h-55.1z"/><path fill="#525252" d="M473.1 419.27h133.26v160.18H473.1z"/><mask id="e"><path fill="#fff" d="M473.1 419.27h133.26v160.18H473.1z"/></mask><path fill="none" mask="url(#e)" d="M473.1 419.27h133.26v160.18H473.1z"/><path fill="#525252" d="M607 473.1h53.18v26.26H607z"/><mask id="f"><path fill="#fff" d="M607 473.1h53.18v26.26H607z"/></mask><path fill="none" mask="url(#f)" d="M607 473.1h53.18v26.26H607z"/><path fill="#525252" d="M632.95 499.36h26.6v27.55h-26.6z"/><mask id="g"><path fill="#fff" d="M632.95 499.36h26.6v27.55h-26.6z"/></mask><path fill="none" mask="url(#g)" d="M632.95 499.36h26.6v27.55h-26.6z"/><path fill="#525252" d="M446.18 447.46h26.9v212.7h-26.9z"/><mask id="h"><path fill="#fff" d="M446.18 447.46h26.9v212.7h-26.9z"/></mask><path fill="none" mask="url(#h)" d="M446.18 447.46h26.9v212.7h-26.9z"/><path fill="#525252" d="M473.1 579.45h106.35v28.2H473.1z"/><mask id="i"><path fill="#fff" d="M473.1 579.45h106.35v28.2H473.1z"/></mask><path fill="none" mask="url(#i)" d="M473.1 579.45h106.35v28.2H473.1z"/><path fill="#525252" d="M473.1 607.64h79.44v26.9H473.1z"/><mask id="j"><path fill="#fff" d="M473.1 607.64h79.44v26.9H473.1z"/></mask><path fill="none" mask="url(#j)" d="M473.1 607.64h79.44v26.9H473.1z"/><path fill="#525252" d="M500 634.55h26.27V769.1H500z"/><mask id="k"><path fill="#fff" d="M500 634.55h26.27V769.1H500z"/></mask><path fill="none" mask="url(#k)" d="M500 634.55h26.27V769.1H500z"/><path fill="#525252" d="M473.1 634.55H500v53.82h-26.9z"/><mask id="l"><path fill="#fff" d="M473.1 634.55H500v53.82h-26.9z"/></mask><path fill="none" mask="url(#l)" d="M473.1 634.55H500v53.82h-26.9z"/><path fill="#525252" d="M526.27 743.47h26.27v25.63h-26.27z"/><mask id="m"><path fill="#fff" d="M526.27 743.47h26.27v25.63h-26.27z"/></mask><path fill="none" mask="url(#m)" d="M526.27 743.47h26.27v25.63h-26.27z"/><path fill="#525252" d="M391.08 743.47h26.9v25.63h-26.9z"/><mask id="n"><path fill="#fff" d="M391.08 743.47h26.9v25.63h-26.9z"/></mask><path fill="none" mask="url(#n)" d="M391.08 743.47h26.9v25.63h-26.9z"/><path fill="#525252" d="M418 473.1h28.18v215.27h-28.2z"/><mask id="o"><path fill="#fff" d="M418 473.1h28.18v215.27h-28.2z"/></mask><path fill="none" mask="url(#o)" d="M418 473.1h28.18v215.27h-28.2z"/><path fill="#525252" d="M391.08 499.36h26.9v215.92h-26.9z"/><mask id="p"><path fill="#fff" d="M391.08 499.36h26.9v215.92h-26.9z"/></mask><path fill="none" mask="url(#p)" d="M391.08 499.36h26.9v215.92h-26.9z"/><path fill="#525252" d="M337.26 526.9h53.82v134.56h-53.82z"/><mask id="q"><path fill="#fff" d="M337.26 526.9h53.82v134.56h-53.82z"/></mask><path fill="none" mask="url(#q)" d="M337.26 526.9h53.82v134.56h-53.82z"/><path fill="#525252" d="M364.17 661.46h26.9V769.1h-26.9z"/><mask id="r"><path fill="#fff" d="M364.17 661.46h26.9V769.1h-26.9z"/></mask><path fill="none" mask="url(#r)" d="M364.17 661.46h26.9V769.1h-26.9z"/><path fill="#525252" d="M310.35 499.36h26.9v135.2h-26.9z"/><mask id="s"><path fill="#fff" d="M310.35 499.36h26.9v135.2h-26.9z"/></mask><path fill="none" mask="url(#s)" d="M310.35 499.36h26.9v135.2h-26.9z"/><path fill="#525252" d="M284.72 473.1h25.63v134.54h-25.63z"/><mask id="t"><path fill="#fff" d="M284.72 473.1h25.63v134.54h-25.63z"/></mask><path fill="none" mask="url(#t)" d="M284.72 473.1h25.63v134.54h-25.63z"/><path fill="#525252" d="M258.46 419.27h26.9v161.46h-26.9z"/><mask id="u"><path fill="#fff" d="M258.46 419.27h26.9v161.46h-26.9z"/></mask><path fill="none" mask="url(#u)" d="M258.46 419.27h26.9v161.46h-26.9z"/><path fill="#FFF" d="M551.9 259.1h30.75v30.75H551.9z"/><mask id="v"><path fill="#fff" d="M551.9 259.1h30.75v30.75H551.9z"/></mask><path fill="none" mask="url(#v)" d="M551.9 259.1h30.75v30.75H551.9z"/><defs><filter id="w" x="-200%" y="-200%" width="400%" height="400%"><feOffset xmlns="http://www.w3.org/2000/svg" in="SourceAlpha" result="offOut" dy="16"/><feGaussianBlur xmlns="http://www.w3.org/2000/svg" in="offOut" result="blurOut" stdDeviation="8"/><feComponentTransfer xmlns="http://www.w3.org/2000/svg" in="blurOut" result="opacOut"><feFuncA xmlns="http://www.w3.org/2000/svg" type="table" tableValues="0 0.5"/></feComponentTransfer><feBlend xmlns="http://www.w3.org/2000/svg" in="SourceGraphic" in2="opacOut"/></filter></defs><path d="M210.03 210.03C370.07 50 629.93 50 789.97 210.03c160.04 160.04 160.04 419.9 0 579.94-160.04 160.04-419.9 160.04-579.94 0C50 629.93 50 370.07 210.03 210.03zm7.16 7.16l569.2 569.2-569.2-569.2z" fill="none" stroke="#1976D2" stroke-width="45.49" stroke-linecap="square" stroke-miterlimit="3" filter="url(#w)"/></svg>