<?xml version="1.0" standalone="no"?><!-- Generator: Gravit.io --><svg xmlns="http://www.w3.org/2000/svg" xmlns:xlink="http://www.w3.org/1999/xlink" style="isolation:isolate" viewBox="0 0 1000 1000" width="1000" height="1000"><g id="null" filter="url(#jkGk8hFemdHLTz8RcnP05xpDegaXNB3d)"><path d=" M 646.702 339.816 C 646.984 336.634 647.125 333.559 647.125 330.563 C 647.125 267.395 595.73 216 532.562 216 C 487.23 215.957 446.155 242.705 427.861 284.182 C 419.335 279.893 409.919 277.668 400.375 277.688 C 371.749 277.758 346.915 297.472 340.353 325.337 C 303.305 336.211 277 370.844 277 409.875 C 277 458.467 316.533 498 365.125 498 L 638.312 498 C 682.049 498 717.625 462.424 717.625 418.688 C 717.625 377.78 686.508 344.019 646.702 339.816 Z " fill="rgb(255,255,255)"/><path d=" M 477.671 337.041 L 470.269 318.812 L 455.907 352.839 L 489.934 367.312 L 482.587 349.083 C 502.639 341.018 525.563 350.74 533.683 370.847 C 536.169 376.923 536.997 383.386 536.334 389.628 L 548.763 394.82 C 550.531 385.43 549.757 375.487 545.89 365.931 C 535.064 339.085 504.572 326.159 477.726 336.986 L 477.671 337.041 Z  M 511.919 421.942 C 491.867 430.063 468.943 420.285 460.879 400.234 C 458.393 394.158 457.564 387.695 458.227 381.563 L 445.799 376.26 C 444.141 385.651 444.86 395.594 448.726 405.15 C 459.553 431.996 490.045 444.922 516.89 434.095 L 524.237 452.324 L 538.765 418.241 L 504.517 403.769 L 511.864 421.998 L 511.919 421.942 Z " fill-rule="evenodd" fill="rgb(0,0,0)" fill-opacity="0.5"/></g><defs><filter id="jkGk8hFemdHLTz8RcnP05xpDegaXNB3d" x="-200%" y="-200%" width="400%" height="400%"><feOffset xmlns="http://www.w3.org/2000/svg" in="SourceAlpha" result="offOut" dx="0" dy="4"/><feGaussianBlur xmlns="http://www.w3.org/2000/svg" in="offOut" result="blurOut" stdDeviation="2"/><feComponentTransfer xmlns="http://www.w3.org/2000/svg" in="blurOut" result="opacOut"><feFuncA xmlns="http://www.w3.org/2000/svg" type="table" tableValues="0 0.5"/></feComponentTransfer><feBlend xmlns="http://www.w3.org/2000/svg" in="SourceGraphic" in2="opacOut" mode="normal"/></filter></defs><g id="null"><path d="M 206.605 693.908 L 371.241 669.186 C 380.281 667.828 388.722 674.065 390.08 683.105 L 405.525 785.957 C 406.882 794.997 400.645 803.438 391.605 804.795 L 226.969 829.518 C 217.929 830.876 209.488 824.638 208.13 815.599 L 192.686 712.747 C 191.328 703.707 197.565 695.266 206.605 693.908 Z" style="stroke:none;fill:#455A64;stroke-miterlimit:10;"/><path d="M 198.706 709.64 L 198.706 709.64 C 199.596 709.506 200.443 710.23 200.597 711.255 L 206.053 747.59 C 206.207 748.615 205.61 749.555 204.72 749.689 L 204.72 749.689 C 203.831 749.822 202.983 749.099 202.829 748.074 L 197.373 711.739 C 197.219 710.714 197.817 709.773 198.706 709.64 Z" style="stroke:none;fill:#CFD8DC;stroke-miterlimit:10;"/><path d="M 383.087 681.945 L 383.087 681.945 C 383.977 681.811 384.824 682.535 384.978 683.56 L 390.434 719.895 C 390.588 720.92 389.991 721.86 389.101 721.994 L 389.101 721.994 C 388.211 722.127 387.364 721.404 387.21 720.379 L 381.754 684.044 C 381.6 683.019 382.197 682.078 383.087 681.945 Z" style="stroke:none;fill:#CFD8DC;stroke-miterlimit:10;"/><path d="M 204.49 696.868 L 373.777 671.447 C 377.938 670.822 381.824 673.693 382.448 677.855 L 399.774 793.231 C 400.399 797.392 397.528 801.278 393.367 801.903 L 224.08 827.324 C 219.918 827.949 216.033 825.078 215.408 820.917 L 198.082 705.54 C 197.457 701.379 200.328 697.493 204.49 696.868 Z" style="stroke:none;fill:#607D8B;stroke-miterlimit:10;"/><path d=" M 208.369 708.186 L 373.749 683.343 L 389.95 791.182 L 224.608 816.003 L 208.369 708.186 Z " fill="rgb(238,238,238)"/><path d=" M 208.364 708.182 L 373.736 683.349 L 389.927 791.17 L 224.555 816.003 L 208.364 708.182 Z " fill="none"/><path d=" M 288.537 690.036 C 288.417 689.234 288.97 688.485 289.772 688.365 C 290.574 688.244 291.323 688.798 291.443 689.6 C 291.564 690.401 291.01 691.15 290.208 691.271 C 289.406 691.391 288.657 690.838 288.537 690.036 Z " fill="rgb(38,50,56)"/><path d=" M 277.441 691.702 C 277.37 691.232 277.695 690.794 278.164 690.723 C 278.634 690.652 279.073 690.977 279.143 691.446 C 279.214 691.916 278.89 692.355 278.42 692.425 C 277.95 692.496 277.511 692.172 277.441 691.702 Z " fill="rgb(38,50,56)"/></g><g id="null" filter="url(#Ku21mXAyHXiAiSlUWw3DD1mdzfLDA8j9)"><path d="M 484.23 710.869 L 448.818 826.607 C 447.828 829.844 444.396 831.668 441.159 830.677 L 390.747 815.253 C 387.51 814.262 385.686 810.83 386.677 807.593 L 422.089 691.855 C 423.079 688.618 426.512 686.794 429.749 687.785 L 480.16 703.209 C 483.397 704.2 485.221 707.632 484.23 710.869 Z" style="stroke:none;fill:#212121;stroke-miterlimit:10;"/><path d="M 484.23 710.869 L 448.818 826.607 C 447.828 829.844 444.396 831.668 441.159 830.677 L 390.747 815.253 C 387.51 814.262 385.686 810.83 386.677 807.593 L 422.089 691.855 C 423.079 688.618 426.512 686.794 429.749 687.785 L 480.16 703.209 C 483.397 704.2 485.221 707.632 484.23 710.869 Z" style="fill:none;stroke:#EEEEEE;stroke-width:0.32338949137524875;stroke-linecap:square;"/><path d="M 408.248 813.641 L 427.553 819.548 C 427.943 819.667 428.163 820.081 428.043 820.471 L 427.889 820.974 C 427.77 821.364 427.356 821.584 426.966 821.465 L 407.661 815.558 C 407.271 815.439 407.051 815.025 407.17 814.635 L 407.324 814.131 C 407.444 813.741 407.857 813.521 408.248 813.641 Z" style="stroke:none;fill:#000000;stroke-linecap:square;"/><path d="M 443.833 697.321 L 463.138 703.228 C 463.528 703.347 463.748 703.761 463.629 704.151 L 463.475 704.655 C 463.355 705.045 462.942 705.265 462.552 705.145 L 443.246 699.239 C 442.856 699.119 442.636 698.705 442.756 698.315 L 442.91 697.812 C 443.029 697.422 443.443 697.202 443.833 697.321 Z" style="stroke:none;fill:#000000;stroke-linecap:square;"/><path d=" M 435.504 695.806 C 435.773 694.927 436.705 694.431 437.585 694.7 C 438.464 694.97 438.96 695.902 438.691 696.781 C 438.422 697.661 437.489 698.156 436.61 697.887 C 435.73 697.618 435.235 696.686 435.504 695.806 Z " fill="rgb(0,0,0)"/><path d=" M 422.529 699.51 L 479.583 716.967 L 448.09 819.897 L 391.035 802.44 L 422.529 699.51 Z " fill="none"/></g><defs><filter id="Ku21mXAyHXiAiSlUWw3DD1mdzfLDA8j9" x="-200%" y="-200%" width="400%" height="400%"><feOffset xmlns="http://www.w3.org/2000/svg" in="SourceAlpha" result="offOut" dx="0" dy="2"/><feGaussianBlur xmlns="http://www.w3.org/2000/svg" in="offOut" result="blurOut" stdDeviation="1"/><feComponentTransfer xmlns="http://www.w3.org/2000/svg" in="blurOut" result="opacOut"><feFuncA xmlns="http://www.w3.org/2000/svg" type="table" tableValues="0 0.5"/></feComponentTransfer><feBlend xmlns="http://www.w3.org/2000/svg" in="SourceGraphic" in2="opacOut" mode="normal"/></filter></defs><g id="null"><rect x="663.333" y="740" width="17" height="43" transform="matrix(1,0,0,1,0,0)" fill="rgb(215,215,215)"/><defs><filter id="H3i2Qgp2TijTyIzhulLcZ18bLQip2BJF" x="-200%" y="-200%" width="400%" height="400%"><feOffset xmlns="http://www.w3.org/2000/svg" in="SourceAlpha" result="offOut" dx="0" dy="2"/><feGaussianBlur xmlns="http://www.w3.org/2000/svg" in="offOut" result="blurOut" stdDeviation="1"/><feComponentTransfer xmlns="http://www.w3.org/2000/svg" in="blurOut" result="opacOut"><feFuncA xmlns="http://www.w3.org/2000/svg" type="table" tableValues="0 0.5"/></feComponentTransfer><feBlend xmlns="http://www.w3.org/2000/svg" in="SourceGraphic" in2="opacOut" mode="normal"/></filter></defs><g filter="url(#H3i2Qgp2TijTyIzhulLcZ18bLQip2BJF)"><path d="M 537.656 603 L 806.011 603 C 806.833 603 807.5 603.667 807.5 604.489 L 807.5 758.511 C 807.5 759.333 806.833 760 806.011 760 L 537.656 760 C 536.834 760 536.167 759.333 536.167 758.511 L 536.167 604.489 C 536.167 603.667 536.834 603 537.656 603 Z" style="stroke:none;fill:#D7D7D7;stroke-linecap:square;"/></g><rect x="538.5" y="605" width="266.667" height="150" transform="matrix(1,0,0,1,0,0)" fill="rgb(33,33,33)"/><path d=" M 613.5 806 Q 650.97 786.287 673.5 787 Q 693.922 787.647 727.5 806" fill="none" vector-effect="non-scaling-stroke" stroke-width="15" stroke="rgb(215,215,215)" stroke-linejoin="miter" stroke-linecap="square" stroke-miterlimit="3"/></g><path d=" M 415 488 Q 346.637 517.113 320 653" fill="none" vector-effect="non-scaling-stroke" stroke-width="7" stroke-dasharray="7,14" stroke="rgb(255,255,255)" stroke-linejoin="round" stroke-linecap="round" stroke-miterlimit="3"/><path d=" M 485 498 Q 422.689 530.795 450 675" fill="none" vector-effect="non-scaling-stroke" stroke-width="7" stroke-dasharray="7,14" stroke="rgb(255,255,255)" stroke-linejoin="round" stroke-linecap="round" stroke-miterlimit="3"/><path d=" M 609 488 Q 648.898 505.387 659 581" fill="none" vector-effect="non-scaling-stroke" stroke-width="7" stroke-dasharray="7,14" stroke="rgb(255,255,255)" stroke-linejoin="round" stroke-linecap="round" stroke-miterlimit="3"/></svg>