<?xml version="1.0" standalone="no"?><!-- Generator: Gravit.io --><svg xmlns="http://www.w3.org/2000/svg" xmlns:xlink="http://www.w3.org/1999/xlink" style="isolation:isolate" viewBox="0 0 1000 1000" width="1000" height="1000"><g id="Layer 0" filter="url(#qFLxutpM0zoxTqyGhjINWUDRNU3udwVt)"><g id="null"><path d=" M 228.077 184 L 840.167 184 C 853.94 184 865.122 195.182 865.122 208.955 L 865.122 320.045 C 865.122 333.818 853.94 345 840.167 345 L 228.077 345 C 214.304 345 203.122 333.818 203.122 320.045 L 203.122 208.955 C 203.122 195.182 214.304 184 228.077 184 Z " fill="rgb(126,87,194)"/><path d=" M 228.322 291 L 839.922 291 C 853.83 291 865.122 302.292 865.122 316.2 L 865.122 685.8 C 865.122 699.708 853.83 711 839.922 711 L 228.322 711 C 214.414 711 203.122 699.708 203.122 685.8 L 203.122 316.2 C 203.122 302.292 214.414 291 228.322 291 Z " fill="rgb(237,231,246)"/><rect x="294.122" y="129" width="55" height="55" transform="matrix(1,0,0,1,0,0)" fill="rgb(126,87,194)"/><rect x="202.122" y="292" width="662" height="50" transform="matrix(1,0,0,1,0,0)" fill="rgb(237,231,246)"/><rect x="257.122" y="341" width="152" height="313.622" transform="matrix(1,0,0,1,0,0)" fill="rgb(179,157,219)"/><rect x="455.122" y="341" width="159" height="313.622" transform="matrix(1,0,0,1,0,0)" fill="rgb(179,157,219)"/><rect x="659.128" y="341" width="161" height="313.622" transform="matrix(1,0,0,1,0,0)" fill="rgb(255,235,59)"/><rect x="716.122" y="128" width="55" height="55" transform="matrix(1,0,0,1,0,0)" fill="rgb(126,87,194)"/></g></g><defs><filter id="qFLxutpM0zoxTqyGhjINWUDRNU3udwVt" x="-200%" y="-200%" width="400%" height="400%"><feOffset xmlns="http://www.w3.org/2000/svg" in="SourceAlpha" result="offOut" dx="0" dy="4"/><feGaussianBlur xmlns="http://www.w3.org/2000/svg" in="offOut" result="blurOut" stdDeviation="4"/><feComponentTransfer xmlns="http://www.w3.org/2000/svg" in="blurOut" result="opacOut"><feFuncA xmlns="http://www.w3.org/2000/svg" type="table" tableValues="0 0.5"/></feComponentTransfer><feBlend xmlns="http://www.w3.org/2000/svg" in="SourceGraphic" in2="opacOut" mode="normal"/></filter></defs><g id="Layer 1" filter="url(#kUfSqteh2UsmzlAQwU2qFYJuvm0RF3QI)"><g id="null"><path d=" M 306.608 860.429 L 69.212 291.838 C 60.383 270.691 70.383 246.355 91.529 237.526 L 334.188 136.212 C 355.335 127.383 379.671 137.383 388.5 158.529 L 625.896 727.121 C 634.725 748.267 624.725 772.603 603.579 781.432 L 360.92 882.746 C 339.773 891.575 315.437 881.575 306.608 860.429 Z " fill="rgb(69,90,100)"/></g><rect x="69.821" y="344.874" width="554.075" height="330.05" transform="matrix(-0.385,-0.923,0.923,-0.385,9.788,1026.321)" fill="rgb(237,231,246)"/><path d=" M 159.594 248.448 L 159.594 248.448 C 158.431 245.662 159.761 242.45 162.562 241.281 L 286.217 189.653 C 289.018 188.483 292.237 189.795 293.4 192.581 L 293.4 192.581 C 294.563 195.368 293.233 198.579 290.432 199.748 L 166.777 251.376 C 163.976 252.546 160.757 251.234 159.594 248.448 Z " fill="rgb(38,50,56)"/><path d=" M 400.524 824.522 L 400.524 824.522 C 399.361 821.736 400.691 818.525 403.492 817.355 L 527.147 765.727 C 529.948 764.558 533.167 765.87 534.33 768.656 L 534.33 768.656 C 535.493 771.442 534.163 774.654 531.362 775.823 L 407.707 827.451 C 404.906 828.621 401.688 827.308 400.524 824.522 Z " fill="rgb(38,50,56)"/><path d=" M 137.013 267.037 C 132.684 268.844 127.71 266.816 125.912 262.51 C 124.114 258.205 126.17 253.242 130.499 251.434 C 134.828 249.627 139.802 251.655 141.6 255.961 C 143.397 260.266 141.342 265.229 137.013 267.037 Z " fill="rgb(38,50,56)"/><path d=" M 275.334 731.018 L 254.529 681.187 C 253.465 678.641 254.67 675.71 257.216 674.647 L 526.673 562.144 C 529.22 561.081 532.15 562.285 533.214 564.832 L 554.019 614.663 C 555.082 617.209 553.878 620.14 551.331 621.203 L 281.874 733.706 C 279.328 734.769 276.397 733.565 275.334 731.018 Z " fill="rgb(179,157,219)"/><path d=" M 241.321 649.553 L 217.306 592.035 C 216.243 589.488 217.447 586.558 219.994 585.495 L 489.451 472.992 C 491.997 471.929 494.928 473.133 495.991 475.679 L 520.006 533.197 C 521.069 535.744 519.865 538.674 517.318 539.738 L 247.861 652.24 C 245.315 653.304 242.384 652.099 241.321 649.553 Z " fill="rgb(179,157,219)"/><path d=" M 205.465 562.059 L 181.45 504.541 C 180.387 501.994 181.591 499.064 184.138 498.001 L 453.595 385.498 C 456.141 384.435 459.072 385.639 460.135 388.185 L 484.15 445.703 C 485.213 448.25 484.009 451.18 481.462 452.244 L 212.005 564.746 C 209.459 565.81 206.528 564.605 205.465 562.059 Z " fill="rgb(179,157,219)"/><g id="null"><path d=" M 161.442 455.639 L 139.096 402.117 C 138.033 399.57 139.237 396.64 141.783 395.577 L 411.24 283.074 C 413.787 282.011 416.718 283.215 417.781 285.761 L 440.127 339.284 C 441.191 341.83 439.986 344.761 437.44 345.824 L 167.983 458.327 C 165.436 459.39 162.505 458.186 161.442 455.639 Z " fill="rgb(255,235,59)"/></g><rect x="217.424" y="123.193" width="73.617" height="330.05" transform="matrix(-0.385,-0.923,0.923,-0.385,86.099,633.813)" fill="rgb(126,87,194)"/><rect x="233.709" y="98.737" width="20.609" height="330.05" transform="matrix(-0.385,-0.923,0.923,-0.385,94.518,590.509)" fill="rgb(103,58,183)"/><g opacity="0.12"><line x1="173.386" y1="484.246" x2="451.148" y2="368.276" vector-effect="non-scaling-stroke" stroke-width="1" stroke="rgb(0,0,0)" stroke-opacity="1200" stroke-linejoin="miter" stroke-linecap="square" stroke-miterlimit="3"/></g><path d=" M 245.467 383.713 L 267.614 374.466 L 276.861 396.613 L 254.714 405.86 L 245.467 383.713 L 245.467 383.713 L 245.467 383.713 Z " fill="none"/><path d=" M 175.631 402.305 L 172.254 400.917 C 169.528 405.635 168.858 411.433 170.85 416.861 L 174.182 415.47 C 172.589 410.951 173.241 406.14 175.631 402.305 Z  M 200.739 404.382 L 204.071 402.991 C 201.595 397.764 197.001 394.165 191.746 392.779 L 190.375 396.149 C 194.749 397.159 198.646 400.072 200.739 404.382 Z  M 197.805 406.586 C 195.669 401.471 191.149 398.33 185.911 399.186 L 185.438 398.054 C 184.861 396.671 183.279 396.021 181.896 396.598 C 180.513 397.175 179.863 398.758 180.44 400.14 L 180.913 401.273 C 176.605 404.403 175.67 409.801 177.812 414.933 L 181.29 423.263 L 179.349 427.986 L 180.045 429.652 L 206.701 418.523 L 206.006 416.857 L 201.283 414.916 L 197.805 406.586 L 197.805 406.586 L 197.805 406.586 Z  M 195.46 429.086 C 195.693 428.988 195.903 428.881 196.099 428.741 C 197.084 428.055 197.661 426.954 197.677 425.773 C 197.676 425.304 197.579 424.836 197.384 424.369 L 190.72 427.152 C 191.502 428.977 193.611 429.858 195.46 429.086 Z " fill-rule="evenodd" fill="rgb(0,0,0)" fill-opacity="0.54"/></g><defs><filter id="kUfSqteh2UsmzlAQwU2qFYJuvm0RF3QI" x="-200%" y="-200%" width="400%" height="400%"><feOffset xmlns="http://www.w3.org/2000/svg" in="SourceAlpha" result="offOut" dx="0" dy="8"/><feGaussianBlur xmlns="http://www.w3.org/2000/svg" in="offOut" result="blurOut" stdDeviation="4"/><feComponentTransfer xmlns="http://www.w3.org/2000/svg" in="blurOut" result="opacOut"><feFuncA xmlns="http://www.w3.org/2000/svg" type="table" tableValues="0 0.5"/></feComponentTransfer><feBlend xmlns="http://www.w3.org/2000/svg" in="SourceGraphic" in2="opacOut" mode="normal"/></filter></defs></svg>