<?xml version="1.0" encoding="UTF-8" standalone="no"?>
<!-- Created with Inkscape (http://www.inkscape.org/) -->

<svg
   xmlns:dc="http://purl.org/dc/elements/1.1/"
   xmlns:cc="http://creativecommons.org/ns#"
   xmlns:rdf="http://www.w3.org/1999/02/22-rdf-syntax-ns#"
   xmlns:svg="http://www.w3.org/2000/svg"
   xmlns="http://www.w3.org/2000/svg"
   xmlns:xlink="http://www.w3.org/1999/xlink"
   xmlns:inkscape="http://www.inkscape.org/namespaces/inkscape"
   version="1.1"
   width="192"
   height="192"
   id="svg2">
  <defs
     id="defs4">
    <linearGradient
       id="linearGradient4034">
      <stop
         id="stop4036"
         style="stop-color:#ffffff;stop-opacity:0.10196079"
         offset="0" />
      <stop
         id="stop4038"
         style="stop-color:#ffffff;stop-opacity:0"
         offset="1" />
    </linearGradient>
    <linearGradient
       id="linearGradient4016">
      <stop
         id="stop4018"
         style="stop-color:#1a237e;stop-opacity:0.2"
         offset="0" />
      <stop
         id="stop4020"
         style="stop-color:#1a2370;stop-opacity:0"
         offset="1" />
    </linearGradient>
    <inkscape:path-effect
       effect="spiro"
       id="path-effect4014" />
    <inkscape:path-effect
       effect="spiro"
       id="path-effect4000" />
    <filter
       x="-0.19"
       y="-0.22"
       width="1.37"
       height="1.34"
       color-interpolation-filters="sRGB"
       id="filter3986">
      <feFlood
         result="flood"
         flood-color="rgb(26,35,126)"
         flood-opacity="0.2"
         id="feFlood3988" />
      <feComposite
         in2="SourceGraphic"
         operator="in"
         in="flood"
         result="composite1"
         id="feComposite3990" />
      <feGaussianBlur
         result="blur"
         stdDeviation="4"
         id="feGaussianBlur3992" />
      <feOffset
         result="offset"
         dy="4"
         dx="0"
         id="feOffset3994" />
      <feComposite
         in2="offset"
         operator="over"
         in="SourceGraphic"
         result="composite2"
         id="feComposite3996" />
    </filter>
    <clipPath
       id="clipPath4010">
      <path
         d="m 125.30178,996.30152 30.19822,38.81068 70.06706,-31.8939 -64.30252,-87.28354 -35.96276,80.36676"
         id="path4012"
         style="fill:#000000;stroke:#000000;stroke-width:1px;stroke-linecap:butt;stroke-linejoin:miter;stroke-opacity:1" />
    </clipPath>
    <linearGradient
       x1="177.98123"
       y1="984.7655"
       x2="186.47485"
       y2="994.66504"
       id="linearGradient4022"
       xlink:href="#linearGradient4016"
       gradientUnits="userSpaceOnUse" />
    <linearGradient
       x1="-0.70710677"
       y1="860.54919"
       x2="190.93208"
       y2="1052.1884"
       id="linearGradient4032"
       xlink:href="#linearGradient4034"
       gradientUnits="userSpaceOnUse"
       gradientTransform="translate(-6.3476563e-7,2.4126563e-5)" />
    <linearGradient
       x1="177.98123"
       y1="984.7655"
       x2="186.47485"
       y2="994.66504"
       id="linearGradient3025"
       xlink:href="#linearGradient4016"
       gradientUnits="userSpaceOnUse" />
    <linearGradient
       x1="177.98123"
       y1="984.7655"
       x2="186.47485"
       y2="994.66504"
       id="linearGradient3027"
       xlink:href="#linearGradient4016"
       gradientUnits="userSpaceOnUse" />
    <linearGradient
       x1="177.98123"
       y1="984.7655"
       x2="186.47485"
       y2="994.66504"
       id="linearGradient3029"
       xlink:href="#linearGradient4016"
       gradientUnits="userSpaceOnUse" />
    <linearGradient
       x1="1.2455472"
       y1="861.20343"
       x2="193.04124"
       y2="1052.0985"
       id="linearGradient3922"
       xlink:href="#linearGradient4034"
       gradientUnits="userSpaceOnUse" />
  </defs>
  <metadata
     id="metadata7">
    <rdf:RDF>
      <cc:Work
         rdf:about="">
        <dc:format>image/svg+xml</dc:format>
        <dc:type
           rdf:resource="http://purl.org/dc/dcmitype/StillImage" />
        <dc:title></dc:title>
      </cc:Work>
    </rdf:RDF>
  </metadata>
  <g
     transform="translate(0,-860.36218)"
     id="layer1">
    <g
       id="g3001"
       style="fill:#673abf;fill-opacity:0.94117647">
      <rect
         width="128"
         height="176"
         rx="12"
         x="892.36218"
         y="-184"
         transform="matrix(0,1,-1,0,0,0)"
         id="rect2985"
         style="color:#000000;fill:#673abf;fill-opacity:0.94117647;fill-rule:nonzero;stroke:none;stroke-width:1px;marker:none;visibility:visible;display:inline;overflow:visible;enable-background:accumulate" />
      <rect
         width="12"
         height="12"
         x="148"
         y="880.36218"
         id="rect2989"
         style="color:#000000;fill:#673abf;fill-opacity:0.94117647;fill-rule:nonzero;stroke:none;stroke-width:1px;marker:none;visibility:visible;display:inline;overflow:visible;enable-background:accumulate" />
      <rect
         width="12"
         height="12"
         x="32"
         y="880.36218"
         id="rect2993"
         style="color:#000000;fill:#673abf;fill-opacity:0.94117647;fill-rule:nonzero;stroke:none;stroke-width:1px;marker:none;visibility:visible;display:inline;overflow:visible;enable-background:accumulate" />
    </g>
    <rect
       width="92.760803"
       height="152"
       rx="0"
       x="916.36218"
       y="-172"
       transform="matrix(0,1,-1,0,0,0)"
       id="rect2987"
       style="color:#000000;fill:#ede7f6;fill-opacity:1;fill-rule:nonzero;stroke:none;stroke-width:1px;marker:none;visibility:visible;display:inline;overflow:visible;enable-background:accumulate" />
    <path
       d="m 183.94968,904.58171 c -0.005,-0.13469 -0.0401,-0.48272 -0.0777,-0.77339 -0.44188,-3.41362 -2.33402,-6.47334 -5.19069,-8.39368 -1.25891,-0.84628 -2.73826,-1.472 -4.18484,-1.77005 -1.28783,-0.26534 -0.9713,-0.25454 -8.0238,-0.27388 l -6.4855,-0.0178 0,-0.50824 0,-0.50824 6.4634,0.0178 c 7.02511,0.0194 6.7772,0.011 8.0459,0.27339 4.05268,0.83826 7.46858,3.85048 8.82393,7.78116 0.44875,1.30143 0.69366,2.78143 0.65425,3.95374 -0.009,0.25523 -0.0198,0.35384 -0.0249,0.21914 l 0,0 z"
       id="path3800"
       style="color:#000000;fill:#ffffff;fill-opacity:0.2;fill-rule:nonzero;stroke:none;stroke-width:2.47300005;marker:none;visibility:visible;display:inline;overflow:visible;enable-background:accumulate" />
    <path
       d="m 148.0105,880.87338 0,-0.50824 5.98831,0 5.98831,0 0,0.50824 0,0.50823 -5.98831,0 -5.98831,0 0,-0.50823 z"
       id="path3802"
       style="color:#000000;fill:#ffffff;fill-opacity:0.2;fill-rule:nonzero;stroke:none;stroke-width:2.47300005;marker:none;visibility:visible;display:inline;overflow:visible;enable-background:accumulate" />
    <path
       d="m 43.925075,892.84172 0,-0.5 52.062499,0 52.062506,0 0,0.5 0,0.5 -52.062506,0 -52.062499,0 0,-0.5 z"
       id="path3804"
       style="color:#000000;fill:#ffffff;fill-opacity:0.2;fill-rule:nonzero;stroke:none;stroke-width:2.47300005;marker:none;visibility:visible;display:inline;overflow:visible;enable-background:accumulate" />
    <path
       d="m 32.001339,880.87071 0,-0.5 6,0 6,0 0,0.5 0,0.5 -6,0 -6,0 0,-0.5 z"
       id="path3806"
       style="color:#000000;fill:#ffffff;fill-opacity:0.2;fill-rule:nonzero;stroke:none;stroke-width:2.47300005;marker:none;visibility:visible;display:inline;overflow:visible;enable-background:accumulate" />
    <path
       d="m 8.0003372,904.35508 c -0.00943,-1.26246 0.1788277,-2.47005 0.5797232,-3.71875 0.977765,-3.04552 3.1962406,-5.6075 6.0873076,-7.02987 1.226347,-0.60334 2.332573,-0.93962 3.78125,-1.14946 0.46747,-0.0677 0.486604,-0.0679 7.007812,-0.0779 l 6.539063,-0.01 0,0.48522 0,0.48522 5.179687,0.008 c 2.854719,0.004 -0.04536,0.0149 -6.460937,0.024 -12.751245,0.018 -11.787501,0.004 -12.84375,0.19064 -1.573378,0.27839 -3.115935,0.88967 -4.453125,1.76465 -3.144449,2.05754 -5.1356022,5.4637 -5.3876447,9.21635 l -0.025186,0.375 -0.0042,-0.5625 z"
       id="path3808"
       style="color:#000000;fill:#ffffff;fill-opacity:0.2;fill-rule:nonzero;stroke:none;stroke-width:2.47300005;marker:none;visibility:visible;display:inline;overflow:visible;enable-background:accumulate" />
    <path
       d="m 125.024,926.66218 0,-0.5 18.46875,0 18.46875,0 0,0.5 0,0.5 -18.46875,0 -18.46875,0 0,-0.5 z"
       id="path3810"
       style="color:#000000;fill:#ffffff;fill-opacity:0.2;fill-rule:nonzero;stroke:none;stroke-width:2.47300005;marker:none;visibility:visible;display:inline;overflow:visible;enable-background:accumulate" />
    <path
       d="m 125.02393,996.86218 0,-0.5 18.46875,0 18.46875,0 0,0.5 0,0.5 -18.46875,0 -18.46875,0 0,-0.5 z"
       id="path3812"
       style="color:#000000;fill:#bf360c;fill-opacity:0.2;fill-rule:nonzero;stroke:none;stroke-width:2.47300005;marker:none;visibility:visible;display:inline;overflow:visible;enable-background:accumulate" />
    <path
       d="m 183.94968,1008.1169 c -0.005,0.1347 -0.0401,0.4827 -0.0777,0.7734 -0.44188,3.4136 -2.33402,6.4733 -5.19069,8.3937 -1.25891,0.8463 -2.73826,1.472 -4.18484,1.77 -1.28783,0.2654 -0.9713,0.2546 -8.0238,0.2739 l -6.4855,0.018 0,0.5082 0,0.5083 6.4634,-0.018 c 7.02511,-0.019 6.7772,-0.011 8.0459,-0.2734 4.05268,-0.8383 7.46858,-3.8505 8.82393,-7.7812 0.44875,-1.3014 0.69366,-2.7814 0.65425,-3.9537 -0.009,-0.2552 -0.0198,-0.3538 -0.0249,-0.2191 l 0,0 z"
       id="path3814"
       style="color:#000000;fill:#1a237e;fill-opacity:0.2;fill-rule:nonzero;stroke:none;stroke-width:2.47300005;marker:none;visibility:visible;display:inline;overflow:visible;enable-background:accumulate" />
    <path
       d="m 148.0105,1019.8539 0,0.5083 5.98831,0 5.98831,0 0,-0.5083 0,-0.5082 -5.98831,0 -5.98831,0 0,0.5082 z"
       id="path3816"
       style="color:#000000;fill:#1a237e;fill-opacity:0.2;fill-rule:nonzero;stroke:none;stroke-width:2.47300005;marker:none;visibility:visible;display:inline;overflow:visible;enable-background:accumulate" />
    <path
       d="m 43.925075,1019.8622 0,0.5 52.062499,0 52.062506,0 0,-0.5 0,-0.5 -52.062506,0 -52.062499,0 0,0.5 z"
       id="path3818"
       style="color:#000000;fill:#1a237e;fill-opacity:0.2;fill-rule:nonzero;stroke:none;stroke-width:2.47300005;marker:none;visibility:visible;display:inline;overflow:visible;enable-background:accumulate" />
    <path
       d="m 32.001339,1019.8622 0,0.5 6,0 6,0 0,-0.5 0,-0.5 -6,0 -6,0 0,0.5 z"
       id="path3820"
       style="color:#000000;fill:#1a237e;fill-opacity:0.2;fill-rule:nonzero;stroke:none;stroke-width:2.47300005;marker:none;visibility:visible;display:inline;overflow:visible;enable-background:accumulate" />
    <path
       d="m 8.0003372,1008.3762 c -0.00943,1.2625 0.1788277,2.4701 0.5797232,3.7188 0.977765,3.0455 3.1962406,5.6075 6.0873076,7.0298 1.226347,0.6034 2.332573,0.9396 3.78125,1.1495 0.46747,0.068 0.486604,0.068 7.007812,0.078 l 6.539063,0.01 0,-0.4852 0,-0.4853 5.179687,-0.01 c 2.854719,0 -0.04536,-0.015 -6.460937,-0.024 -12.751245,-0.018 -11.787501,0 -12.84375,-0.1906 -1.573378,-0.2784 -3.115935,-0.8897 -4.453125,-1.7646 -3.144449,-2.0576 -5.1356022,-5.4637 -5.3876447,-9.2164 l -0.025186,-0.375 -0.0042,0.5625 z"
       id="path3822"
       style="color:#000000;fill:#1a237e;fill-opacity:0.2;fill-rule:nonzero;stroke:none;stroke-width:2.47300005;marker:none;visibility:visible;display:inline;overflow:visible;enable-background:accumulate" />
    <rect
       width="35"
       height="71.354469"
       x="79"
       y="927.06537"
       id="rect2997"
       style="color:#000000;fill:#b39ddb;fill-opacity:1;fill-rule:nonzero;stroke:none;stroke-width:1px;marker:none;visibility:visible;display:inline;overflow:visible;enable-background:accumulate" />
    <rect
       width="35"
       height="71.354469"
       x="32"
       y="927.06537"
       id="rect2995"
       style="color:#000000;fill:#b39ddb;fill-opacity:1;fill-rule:nonzero;stroke:none;stroke-width:1px;marker:none;visibility:visible;display:inline;overflow:visible;enable-background:accumulate" />
    <g
       transform="matrix(1,0,0,0.89938024,0,102.6686)"
       clip-path="url(#clipPath4010)"
       id="g4002"
       style="opacity:0.73033711;fill:url(#linearGradient4022);fill-opacity:1">
      <rect
         width="128"
         height="176"
         rx="12"
         x="892.36218"
         y="-184"
         transform="matrix(0,1,-1,0,0,0)"
         id="rect4004"
         style="color:#000000;fill:url(#linearGradient3025);fill-opacity:1;fill-rule:nonzero;stroke:none;stroke-width:1px;marker:none;visibility:visible;display:inline;overflow:visible;enable-background:accumulate" />
      <rect
         width="12"
         height="12"
         x="148"
         y="880.36218"
         id="rect4006"
         style="color:#000000;fill:url(#linearGradient3027);fill-opacity:1;fill-rule:nonzero;stroke:none;stroke-width:1px;marker:none;visibility:visible;display:inline;overflow:visible;enable-background:accumulate" />
      <rect
         width="12"
         height="12"
         x="32"
         y="880.36218"
         id="rect4008"
         style="color:#000000;fill:url(#linearGradient3029);fill-opacity:1;fill-rule:nonzero;stroke:none;stroke-width:1px;marker:none;visibility:visible;display:inline;overflow:visible;enable-background:accumulate" />
    </g>
    <rect
       width="37"
       height="82"
       x="125"
       y="915.36218"
       transform="matrix(1,0,0,0.89193084,0,109.73366)"
       id="rect2999"
       style="color:#000000;fill:#ffff00;fill-opacity:1;fill-rule:nonzero;stroke:none;stroke-width:1px;marker:none;visibility:visible;display:inline;overflow:visible;filter:url(#filter3986);enable-background:accumulate" />
  </g>
</svg>
